# xmcd
#
# Track frame offsets: 
#        150
#        16330
#        33331
#        52536
#        67585
#        82573
#        97500
#        110302
#        127787
#        142235
#        159778
#        177514
#        194253
#
# Disc length: 2816 seconds
#
# Revision: 0
# Processed by: cddbd v1.4PL0 Copyright (c) Steve Scherf et al.
# Submitted via: ExactAudioCopy v0.90b3
#
DISCID=850afe0d
DTITLE=Houston Marchman - Desperate Man
DYEAR=2003
DGENRE=Americana
TTITLE0=$2 Pistol
TTITLE1=Midnight
TTITLE2=Suzanne
TTITLE3=Sweet Love
TTITLE4=Desperate Man
TTITLE5=Broken Glass
TTITLE6=Cosmolene
TTITLE7=Hey Senorita
TTITLE8=Policeman
TTITLE9=San Miguel
TTITLE10=Satellite
TTITLE11=Come On Baby
TTITLE12=Hold Fast
EXTD=
EXTT0=
EXTT1=
EXTT2=
EXTT3=
EXTT4=
EXTT5=
EXTT6=
EXTT7=
EXTT8=
EXTT9=
EXTT10=
EXTT11=
EXTT12=
PLAYORDER=
